<?xml version="1.0" standalone="no"?>
<!DOCTYPE svg PUBLIC "-//W3C//DTD SVG 20010904//EN"
 "http://www.w3.org/TR/2001/REC-SVG-20010904/DTD/svg10.dtd">
<svg version="1.0" xmlns="http://www.w3.org/2000/svg"
 width="1280.000000pt" height="733.000000pt" viewBox="0 0 1280.000000 733.000000"
 preserveAspectRatio="xMidYMid meet">
<metadata>
Created by potrace 1.15, written by Peter Selinger 2001-2017
</metadata>
<g transform="translate(0.000000,733.000000) scale(0.100000,-0.100000)"
fill="#000000" stroke="none">
<path d="M6015 7324 c-462 -37 -859 -142 -1226 -326 -254 -127 -450 -265 -638
-451 -234 -231 -396 -479 -506 -772 -38 -101 -88 -290 -100 -377 -4 -27 -9
-48 -11 -48 -2 0 -39 29 -82 65 -546 461 -1175 613 -1762 424 -308 -99 -607
-302 -823 -558 -311 -369 -468 -804 -454 -1254 2 -86 0 -160 -4 -163 -30 -18
-176 -255 -234 -379 -271 -580 -222 -1210 133 -1707 l55 -78 5807 0 c5518 0
5808 1 5822 18 45 53 177 311 241 472 100 250 145 459 154 705 l6 160 54 94
c165 287 274 566 325 839 32 168 32 442 0 594 -107 515 -483 907 -1021 1064
-616 180 -1275 18 -1734 -426 -67 -65 -142 -145 -167 -179 -25 -33 -48 -60
-52 -61 -4 0 -36 57 -72 128 -130 254 -296 510 -482 743 -651 817 -1564 1332
-2574 1454 -128 16 -545 28 -655 19z"/>
<path d="M2225 1318 c-2 -13 -18 -120 -35 -238 -17 -118 -33 -220 -35 -227 -3
-8 -85 25 -231 93 -125 57 -228 103 -229 102 -1 -2 -8 -14 -15 -27 -10 -20
-10 -26 2 -35 8 -6 96 -76 196 -155 l182 -144 -64 -46 c-35 -25 -127 -91 -204
-146 l-140 -100 14 -27 14 -26 187 75 c104 41 209 83 234 93 l46 19 23 -250
24 -249 31 0 32 0 33 233 c18 127 35 238 39 244 5 9 72 -17 230 -89 213 -97
224 -101 237 -83 8 10 14 22 14 27 0 4 -85 76 -190 159 -104 83 -190 154 -190
157 0 5 295 218 398 288 3 2 -15 43 -24 52 -1 2 -107 -38 -234 -88 -127 -51
-232 -91 -234 -89 -2 2 -13 115 -26 252 l-23 247 -28 0 c-22 0 -30 -6 -34 -22z"/>
<path d="M6150 1328 c0 -21 -69 -480 -72 -483 -2 -1 -104 44 -228 100 l-225
103 -17 -21 c-10 -12 -17 -24 -17 -27 0 -3 87 -72 194 -155 107 -82 194 -153
194 -157 1 -3 -89 -70 -199 -149 -110 -78 -200 -145 -200 -148 1 -3 6 -16 13
-28 12 -21 14 -20 244 72 l232 93 6 -32 c2 -17 12 -107 20 -201 25 -277 22
-265 55 -265 34 0 29 -19 71 270 17 118 32 216 34 218 1 2 102 -42 224 -98
121 -55 224 -100 228 -100 5 0 14 10 21 21 17 26 34 10 -188 184 -96 76 -179
141 -183 145 -5 4 80 72 190 149 109 78 199 148 201 154 1 7 -3 21 -11 30 -12
17 -27 13 -241 -73 -126 -50 -230 -89 -232 -87 -3 2 -13 100 -24 218 -28 292
-25 279 -60 279 -17 0 -30 -5 -30 -12z"/>
<path d="M9835 1328 c-2 -7 -18 -114 -35 -238 -17 -124 -33 -230 -35 -237 -3
-8 -85 25 -231 92 -125 58 -229 104 -230 102 -4 -6 -24 -46 -24 -50 0 -2 88
-73 195 -157 107 -84 194 -154 193 -155 -2 -2 -93 -67 -203 -145 -110 -78
-201 -143 -203 -145 -2 -2 4 -14 13 -28 l16 -25 222 89 c122 49 226 89 233 89
12 0 12 -4 40 -302 l17 -188 31 0 31 0 34 242 c19 134 36 245 37 246 1 2 105
-42 229 -99 217 -98 228 -102 241 -84 24 32 47 9 -273 262 l-102 80 152 109
c274 195 259 182 246 207 -7 12 -13 24 -15 26 -2 2 -107 -38 -234 -89 -127
-51 -232 -91 -234 -89 -2 2 -13 112 -26 244 -12 132 -24 243 -27 248 -7 12
-53 8 -58 -5z"/>
</g>
</svg>
