<svg xmlns="http://www.w3.org/2000/svg" xmlns:xlink="http://www.w3.org/1999/xlink" width="161" height="87.866" viewBox="0 0 161 87.866"><defs><filter id="a" x="0" y="0" width="161" height="76.466" filterUnits="userSpaceOnUse"><feOffset dy="3" input="SourceAlpha"/><feGaussianBlur stdDeviation="3" result="b"/><feFlood flood-opacity="0.161"/><feComposite operator="in" in2="b"/><feComposite in="SourceGraphic"/></filter></defs><g transform="translate(9 6)"><g transform="matrix(1, 0, 0, 1, -9, -6)" filter="url(#a)"><path d="M67.389-732.677a38.5,38.5,0,0,0-13.7,3.387,26.611,26.611,0,0,0-7.131,4.686,21.623,21.623,0,0,0-5.656,8.021,23.1,23.1,0,0,0-1.118,3.917,1.629,1.629,0,0,1-.123.5c-.022,0-.436-.3-.917-.675-6.1-4.79-13.133-6.369-19.694-4.405a20.8,20.8,0,0,0-9.2,5.8,18.338,18.338,0,0,0-5.074,13.029,9.132,9.132,0,0,1-.045,1.694,20.8,20.8,0,0,0-2.615,3.938A16.309,16.309,0,0,0,3.6-675.053l.615.81h64.9c61.674,0,64.916-.01,65.072-.187a28.916,28.916,0,0,0,2.694-4.9,19.416,19.416,0,0,0,1.721-7.325l.067-1.662.6-.977a26.685,26.685,0,0,0,3.633-8.717,17.877,17.877,0,0,0,0-6.172c-1.2-5.351-5.4-9.424-11.412-11.055a20.885,20.885,0,0,0-19.381,4.426,21.872,21.872,0,0,0-1.867,1.86,4.2,4.2,0,0,1-.581.634,8.987,8.987,0,0,1-.8-1.33,46.4,46.4,0,0,0-5.387-7.72A44.166,44.166,0,0,0,74.71-732.479,70.333,70.333,0,0,0,67.389-732.677Z" transform="translate(8.82 738.71)" fill="#757575"/></g><path d="M173.228-133.692c-.028.182-.252,1.681-.49,3.334s-.462,3.082-.49,3.18a13.027,13.027,0,0,1-3.236-1.3c-1.751-.8-3.194-1.443-3.208-1.429s-.112.2-.21.378c-.14.28-.14.364.028.49.112.084,1.345,1.065,2.746,2.172l2.55,2.017-.9.644c-.49.35-1.779,1.275-2.858,2.045l-1.961,1.4.2.378.2.364,2.62-1.051c1.457-.574,2.928-1.163,3.278-1.3l.644-.266.322,3.5.336,3.488h.883l.462-3.264c.252-1.779.49-3.334.546-3.418.07-.126,1.009.238,3.222,1.247,2.984,1.359,3.138,1.415,3.32,1.163a.878.878,0,0,0,.2-.378c0-.056-1.191-1.065-2.662-2.228s-2.662-2.157-2.662-2.2c0-.07,4.133-3.054,5.576-4.035a1.9,1.9,0,0,0-.336-.729c-.014-.028-1.5.532-3.278,1.233s-3.25,1.275-3.278,1.247-.182-1.611-.364-3.53L174.1-134H173.7C173.4-134,173.284-133.916,173.228-133.692Z" transform="translate(-142.081 197.51)" fill="#fff"/><path d="M565.986-133.839c0,.294-.967,6.725-1.009,6.767-.028.014-1.457-.616-3.194-1.4l-3.152-1.443-.238.294a1.187,1.187,0,0,0-.238.378c0,.042,1.219,1.009,2.718,2.172s2.718,2.143,2.718,2.2-1.247.981-2.788,2.087-2.8,2.031-2.8,2.073a2.524,2.524,0,0,0,.182.392c.168.294.2.28,3.418-1.009l3.25-1.3.084.448c.028.238.168,1.5.28,2.816.35,3.881.308,3.713.771,3.713s.406.266.995-3.783c.238-1.653.448-3.026.476-3.054s1.429.588,3.138,1.373,3.138,1.4,3.194,1.4.2-.14.294-.294c.238-.364.476-.14-2.634-2.578-1.345-1.065-2.508-1.975-2.564-2.031a16.615,16.615,0,0,1,2.662-2.087,32.332,32.332,0,0,0,2.816-2.157.627.627,0,0,0-.154-.42c-.168-.238-.378-.182-3.376,1.023-1.765.7-3.222,1.247-3.25,1.219s-.182-1.4-.336-3.054c-.392-4.091-.35-3.909-.841-3.909C566.168-134.007,565.986-133.937,565.986-133.839Z" transform="translate(-497.24 197.517)" fill="#fff"/><path d="M934.194-133.847c-.028.1-.252,1.6-.49,3.334s-.462,3.222-.49,3.32a13.25,13.25,0,0,1-3.236-1.289c-1.751-.813-3.208-1.457-3.222-1.429a5.224,5.224,0,0,0-.336.7c0,.028,1.233,1.023,2.732,2.2s2.718,2.157,2.7,2.171-1.3.939-2.844,2.031-2.816,2-2.844,2.031.056.2.182.392l.224.35,3.11-1.247c1.709-.686,3.166-1.247,3.264-1.247.168,0,.168.056.56,4.231l.238,2.634h.869l.476-3.39c.266-1.877.5-3.432.518-3.446s1.471.588,3.208,1.387c3.04,1.373,3.194,1.429,3.376,1.177.336-.448.659-.126-3.825-3.671l-1.429-1.121,2.129-1.527c3.839-2.732,3.629-2.55,3.446-2.9-.1-.168-.182-.336-.21-.364s-1.5.532-3.278,1.247-3.25,1.275-3.278,1.247-.182-1.569-.364-3.418-.336-3.4-.378-3.474C934.909-134.085,934.265-134.029,934.194-133.847Z" transform="translate(-825.313 197.524)" fill="#fff"/></g></svg>